<svg xmlns="http://www.w3.org/2000/svg" version="1.1" xmlns:xlink="http://www.w3.org/1999/xlink" width="512" height="512" x="0" y="0" viewBox="0 0 682.667 682.667" style="enable-background:new 0 0 512 512" xml:space="preserve"><g><defs><clipPath id="a" clipPathUnits="userSpaceOnUse"><path d="M0 512h512V0H0Z" fill="#000000" opacity="1" data-original="#000000"></path></clipPath></defs><g clip-path="url(#a)" transform="matrix(1.33333 0 0 -1.33333 0 682.667)"><path d="M0 0c0-101.07-58.58-188.47-143.64-230.08-34.793 17.328-30.397 42.269-70.707 42.269-2.92 0-44.996-19.055-47.886-18.955-9.63.32-21.607-47.914-30.927-46.554C-416.93-235.32-512-128.76-512 0c0 10.99.69 21.81 2.04 32.43 57.181 51.113 78.333 82.361 132.003 122.941 6.39 4.84-19.283 58.319-12.443 62.549 0 0 .01 0 .01.01C-351.33 242.06-305.29 256-256 256c51.16 0 98.81-15.01 138.8-40.86-20.33-53.783-23.721-69.562-3.371-104.662 4.53-7.81 94.821 1.892 98.521-6.408v-.01C-7.88 72.26 0 37.06 0 0" style="fill-opacity:1;fill-rule:nonzero;stroke:none" transform="translate(512 256)" fill="#97DDFB" data-original="#97ddfb"></path><path d="m0 0-101.654-21.301 90.167-51.551-103.253 11.25 69.707-76.997-94.723 42.62 42.62-94.724-76.997 69.708 11.251-103.253-51.552 90.168-21.301-101.655-21.3 101.655-51.552-90.167 11.25 103.252-76.997-69.707 42.62 94.723-94.723-42.619 69.708 76.996-103.253-11.25 90.167 51.551L-471.469 0l101.654 21.301-90.167 51.551 103.253-11.25-69.707 76.997 94.723-42.62-42.62 94.724 76.996-69.708-11.25 103.253 51.552-90.168 21.3 101.655 21.301-101.655 51.552 90.167-11.25-103.252 76.997 69.707-42.62-94.723 94.723 42.619-69.708-76.996 103.253 11.25-90.167-51.551z" style="fill-opacity:1;fill-rule:nonzero;stroke:none" transform="translate(491.735 256)" fill="#BBE9FA" data-original="#bbe9fa"></path><path d="m0 0 13.76-13.76c4.41-4.41 6.62-10.21 6.63-15.99-.01-5.79-2.22-11.58-6.63-15.99-8.84-8.84-23.16-8.84-31.99-.01l7.41-7.41a22.57 22.57 0 0 0 6.62-16c0-5.91-2.31-11.84-6.92-16.29-8.94-8.61-23.28-8.12-32.05.66l-16.77 16.77c8.74-8.74 8.83-22.84.3-31.7-8.8-9.12-23.7-8.9-32.66.06l-65.07 65.08c9.27-9.28 9.28-24.32 0-33.6a23.701 23.701 0 0 0-16.8-6.96c-6.08 0-12.16 2.33-16.8 6.96l-24.97 24.97c9.91 78.41 55.29 145.77 119.56 185.49a333.875 333.875 0 0 0 73.82-55.72L32 32a22.557 22.557 0 0 0 6.63-16c0-5.79-2.21-11.58-6.63-16C23.17-8.83 8.84-8.84 0 0" style="fill-opacity:1;fill-rule:nonzero;stroke:none" transform="translate(217.98 331.64)" fill="#CB8375" data-original="#cb8375"></path><path d="M0 0c-7.649-7.649-7.649-20.051 0-27.7l11.307-11.308a23.657 23.657 0 0 0 6.954-16.788 23.399 23.399 0 0 0-1.529-8.393 23.546 23.546 0 0 1 8.432 5.437 23.654 23.654 0 0 1 6.947 16.807 23.66 23.66 0 0 1-6.953 16.788z" style="fill-opacity:1;fill-rule:nonzero;stroke:none" transform="translate(35.448 322.215)" fill="#C06A54" data-original="#c06a54"></path><path d="M0 0c0-5.79-2.21-11.58-6.63-16a22.419 22.419 0 0 0-10-5.81c.54 1.95.82 3.97.82 5.99a22.609 22.609 0 0 1-6.64 16l-54.56 54.56a334.503 334.503 0 0 1-77.85 57.94c6.39 4.84 13.01 9.37 19.85 13.6 0 0 .01 0 .01.01 27-15.03 51.85-33.77 73.81-55.73L-6.63 16A22.557 22.557 0 0 0 0 0" style="fill-opacity:1;fill-rule:nonzero;stroke:none" transform="translate(256.61 347.64)" fill="#C06A54" data-original="#c06a54"></path><path d="m0 0 69.219-69.219a22.58 22.58 0 0 0 6.636-16.001 22.567 22.567 0 0 0-6.636-16.001 22.476 22.476 0 0 0-9.999-5.811 22.35 22.35 0 0 1 .818 5.995 22.58 22.58 0 0 1-6.636 16.001L-2.536-29.098c-7.335 7.335-7.335 19.227 0 26.562z" style="fill-opacity:1;fill-rule:nonzero;stroke:none" transform="translate(162.523 387.099)" fill="#C06A54" data-original="#c06a54"></path><path d="m0 0 72.578-72.578a22.582 22.582 0 0 0 6.636-16.001 22.567 22.567 0 0 0-6.636-16.001 22.487 22.487 0 0 0-9.999-5.812c.546 1.955.818 3.978.818 5.996a22.58 22.58 0 0 1-6.636 16.001L-2.536-29.098c-7.335 7.335-7.335 19.227 0 26.562z" style="fill-opacity:1;fill-rule:nonzero;stroke:none" transform="translate(134.583 351.057)" fill="#C06A54" data-original="#c06a54"></path><path d="m0 0 55.454-55.454a22.589 22.589 0 0 0 6.637-16.001 22.566 22.566 0 0 0-6.637-16.001 22.482 22.482 0 0 0-9.999-5.812c.546 1.954.819 3.978.819 5.996a22.589 22.589 0 0 1-6.637 16.001L-2.536-29.098c-7.335 7.335-7.335 19.227 0 26.562z" style="fill-opacity:1;fill-rule:nonzero;stroke:none" transform="translate(102.586 319.073)" fill="#C06A54" data-original="#c06a54"></path><path d="M0 0c-11.71-12.56-19.71-28.05-22.87-44.77-33.92-16.6-72.05-25.92-112.36-25.92-12.62 0-25.03.91-37.16 2.68-23.27 30.99-41 65.83-52.36 102.99l-2.92 9.54c-1.82 5.97-1.05 12.12 1.66 17.24 2.72 5.1 7.39 9.18 13.37 11.01 11.94 3.65 24.59-3.07 28.25-15.03l-5.69 18.62c-1.83 5.96-1.06 12.12 1.65 17.23 2.73 5.11 7.4 9.18 13.37 11.01 11.95 3.65 24.59-3.07 28.24-15.02l-21.53 70.44c-.67 2.2-.99 4.43-.99 6.62 0 9.69 6.26 18.65 16.01 21.63 11.95 3.65 24.59-3.07 28.25-15.02l28.85-94.39 7.71 86.41c1.05 11.76 10.92 20.61 22.51 20.61.67 0 1.35-.03 2.03-.09 12.44-1.11 21.63-12.1 20.52-24.54l-6.45-72.35a26.32 26.32 0 0 1 .61-8.52c-2.72 12.02 4.26 24.27 16.23 27.93a23.65 23.65 0 0 0 18.1-1.75c5.36-2.85 9.64-7.76 11.56-14.03l14.13-46.21C15.86 29.49 11.2 12.01 0 0" style="fill-opacity:1;fill-rule:nonzero;stroke:none" transform="translate(391.23 70.69)" fill="#FFCB91" data-original="#ffcb91"></path><path d="M0 0c10.345 3.162 16.168 14.112 13.005 24.457L8.331 39.75a23.658 23.658 0 0 0 1.742 18.087 23.401 23.401 0 0 0 5.291 6.693 23.547 23.547 0 0 1-9.998-.841A23.66 23.66 0 0 1-8.658 52.111a23.654 23.654 0 0 1-1.743-18.087z" style="fill-opacity:1;fill-rule:nonzero;stroke:none" transform="translate(352.787 115.308)" fill="#FFA96A" data-original="#ffa96a"></path><path d="M0 0c-9.63.32-19.12 1.17-28.44 2.53-23.27 30.99-41 65.83-52.36 102.99l-2.92 9.54a22.586 22.586 0 0 0 1.66 17.24c2.71 5.11 7.39 9.18 13.37 11.01 3.89 1.19 7.85 1.27 11.56.44a22.54 22.54 0 0 1-5.19-22.15l2.91-9.54A334.417 334.417 0 0 1 0 0" style="fill-opacity:1;fill-rule:nonzero;stroke:none" transform="translate(247.28 .15)" fill="#FFA96A" data-original="#ffa96a"></path><path d="m0 0-8.976 29.364a22.585 22.585 0 0 0 1.653 17.244A22.569 22.569 0 0 0 6.049 57.62a22.478 22.478 0 0 0 11.557.436 22.363 22.363 0 0 1-3.538-4.909 22.584 22.584 0 0 1-1.653-17.244l3.486-11.402c3.032-9.92-2.551-20.42-12.471-23.453Z" style="fill-opacity:1;fill-rule:nonzero;stroke:none" transform="translate(210.125 117.683)" fill="#FFA96A" data-original="#ffa96a"></path><path d="M0 0c-7.276-5.581-10.708-15.288-7.87-24.574l27.46-89.832c2.555-8.355-2.148-17.199-10.504-19.753L-22.856-29.667C-26.484-17.797-20.181-4.921-8.377-1.08A22.569 22.569 0 0 0 0 0" style="fill-opacity:1;fill-rule:nonzero;stroke:none" transform="translate(245.737 260.38)" fill="#FFA96A" data-original="#ffa96a"></path><path d="M0 0c-8.841-2.434-15.673-10.137-16.536-19.809l-7.127-79.872c-.777-8.703-8.461-15.128-17.163-14.352l8.489 95.142C-31.234-6.527-20.549 3.032-8.168 2.151A22.574 22.574 0 0 0 0 0" style="fill-opacity:1;fill-rule:nonzero;stroke:none" transform="translate(335.046 254.849)" fill="#FFA96A" data-original="#ffa96a"></path><path d="M0 0a334.323 334.323 0 0 0-70.87-104.64l-7.16-7.17a22.574 22.574 0 0 0-16-6.63c-5.79 0-11.58 2.21-16 6.63-8.83 8.83-8.84 23.16 0 32l-13.76-13.76c-4.42-4.42-10.21-6.62-16-6.63-5.78.01-11.58 2.22-15.99 6.63-8.84 8.84-8.84 23.16 0 31.99l-7.41-7.41a22.588 22.588 0 0 0-16-6.62 22.57 22.57 0 0 0-16.29 6.92c-8.62 8.94-8.12 23.28.66 32.05l16.77 16.77c-8.74-8.74-22.85-8.83-31.71-.3-9.12 8.8-8.89 23.69.07 32.66l17.68 17.68c-9.28-9.28-24.32-9.28-33.6 0a23.632 23.632 0 0 0-6.95 16.8c0 6.08 2.32 12.16 6.96 16.79l34.16 34.17c12.45 12.44 30.07 16.54 45.93 12.29 16.62-4.44 34.08-4.23 50.36.85C-53.59 84.2-20.32 45.62 0 0" style="fill-opacity:1;fill-rule:nonzero;stroke:none" transform="translate(489.95 360.07)" fill="#FFCB91" data-original="#ffcb91"></path><path d="M0 0c-7.649 7.649-20.051 7.649-27.7 0l-11.308-11.307a23.657 23.657 0 0 0-16.787-6.954 23.4 23.4 0 0 0-8.394 1.529 23.546 23.546 0 0 1 5.437-8.432 23.654 23.654 0 0 1 16.807-6.947 23.66 23.66 0 0 1 16.788 6.953z" style="fill-opacity:1;fill-rule:nonzero;stroke:none" transform="translate(323.098 415.398)" fill="#FFA96A" data-original="#ffa96a"></path><path d="M0 0v-.01a334.394 334.394 0 0 0-70.87-104.63l-7.16-7.17a22.574 22.574 0 0 0-16-6.63c-5.79 0-11.58 2.21-16.01 6.63-2.87 2.88-4.8 6.33-5.81 10 1.96-.54 3.98-.82 6-.82 5.79.01 11.58 2.22 16 6.64l7.16 7.16A334.66 334.66 0 0 1-12.36 24.18C-7.83 16.37-3.7 8.3 0 0" style="fill-opacity:1;fill-rule:nonzero;stroke:none" transform="translate(489.95 360.07)" fill="#FFA96A" data-original="#ffa96a"></path><path d="m0 0-21.825-21.825a22.582 22.582 0 0 0-16.001-6.636 22.567 22.567 0 0 0-16.001 6.636 22.487 22.487 0 0 0-5.812 9.999 22.318 22.318 0 0 1 5.996-.818 22.58 22.58 0 0 1 16.001 6.636l8.544 8.544c7.335 7.335 19.227 7.335 26.562 0z" style="fill-opacity:1;fill-rule:nonzero;stroke:none" transform="translate(387.982 288.322)" fill="#FFA96A" data-original="#ffa96a"></path><path d="m0 0-25.184-25.184a22.585 22.585 0 0 0-16.001-6.637 22.562 22.562 0 0 0-16.001 6.637 22.473 22.473 0 0 0-5.812 9.999 22.313 22.313 0 0 1 5.996-.819 22.58 22.58 0 0 1 16.001 6.637l11.903 11.903c7.335 7.335 19.227 7.335 26.562 0z" style="fill-opacity:1;fill-rule:nonzero;stroke:none" transform="translate(351.94 316.263)" fill="#FFA96A" data-original="#ffa96a"></path><path d="m0 0-8.061-8.061a22.58 22.58 0 0 0-16.001-6.636 22.569 22.569 0 0 0-16.001 6.636 22.476 22.476 0 0 0-5.811 9.999 22.35 22.35 0 0 1 5.995-.818 22.58 22.58 0 0 1 16.001 6.636l-5.22-5.22c7.335 7.335 19.227 7.335 26.562 0z" style="fill-opacity:1;fill-rule:nonzero;stroke:none" transform="translate(319.956 348.26)" fill="#FFA96A" data-original="#ffa96a"></path></g></g></svg>